<?xml version="1.0" encoding="UTF-8"?>
<svg xmlns="http://www.w3.org/2000/svg" xmlns:xlink="http://www.w3.org/1999/xlink" width="1600px" height="357px" viewBox="0 0 1606 357" version="1.1">
<g id="surface1">
<path style=" stroke:none;fill-rule:nonzero;fill:rgb(95.294118%,95.686275%,96.078431%);fill-opacity:1;" d="M 0 321.300781 L 53.535156 303.449219 C 107.066406 285.601562 214.132812 249.898438 321.199219 220.113281 C 428.265625 190.773438 535.332031 166.226562 642.398438 184.414062 C 749.464844 201.929688 856.535156 262.171875 963.601562 279.6875 C 1070.667969 297.871094 1177.734375 273.328125 1284.800781 279.6875 C 1391.867188 285.601562 1498.933594 321.300781 1552.464844 339.148438 L 1606 357 L 1552.464844 357 C 1498.933594 357 1391.867188 357 1284.800781 357 C 1177.734375 357 1070.667969 357 963.601562 357 C 856.535156 357 749.464844 357 642.398438 357 C 535.332031 357 428.265625 357 321.199219 357 C 214.132812 357 107.066406 357 53.535156 357 L 0 357 Z M 0 321.300781 "/>
</g>
</svg>
